<?xml version="1.0" encoding="UTF-8" standalone="no"?><!DOCTYPE svg PUBLIC "-//W3C//DTD SVG 1.1//EN" "http://www.w3.org/Graphics/SVG/1.1/DTD/svg11.dtd"><svg width="100%" height="100%" viewBox="0 0 128 128" version="1.1" xmlns="http://www.w3.org/2000/svg" xmlns:xlink="http://www.w3.org/1999/xlink" xml:space="preserve" xmlns:serif="http://www.serif.com/" style="fill-rule:evenodd;clip-rule:evenodd;stroke-linecap:round;stroke-linejoin:round;stroke-miterlimit:1.5;"><path d="M120.261,11.259c0,-2.91 -2.363,-5.274 -5.274,-5.274l-103.568,0c-2.911,0 -5.274,2.364 -5.274,5.274l0,103.568c0,2.911 2.363,5.274 5.274,5.274l103.568,0c2.911,0 5.274,-2.363 5.274,-5.274l0,-103.568Z" style="fill:none;stroke:#ccc;stroke-width:2px;"/><rect x="6.445" y="26.458" width="113.668" height="0.224" style="fill:none;stroke:#ccc;stroke-width:1.5px;"/><rect x="28.758" y="40.183" width="14.561" height="14.561" style="fill:none;stroke:#ccc;stroke-width:1px;"/><rect x="46.815" y="40.245" width="14.561" height="14.561" style="fill:none;stroke:#ccc;stroke-width:1px;"/><rect x="64.331" y="40.183" width="14.561" height="14.561" style="fill:none;stroke:#ccc;stroke-width:1px;"/><rect x="82.417" y="40.245" width="14.561" height="14.561" style="fill:none;stroke:#ccc;stroke-width:1px;"/><rect x="99.933" y="40.183" width="14.561" height="14.561" style="fill:none;stroke:#ccc;stroke-width:1px;"/><rect x="11.242" y="57.714" width="14.561" height="14.561" style="fill:none;stroke:#ccc;stroke-width:1px;"/><rect x="28.758" y="57.652" width="14.561" height="14.561" style="fill:none;stroke:#ccc;stroke-width:1px;"/><rect x="46.815" y="57.714" width="14.561" height="14.561" style="fill:none;stroke:#ccc;stroke-width:1px;"/><rect x="64.331" y="57.652" width="14.561" height="14.561" style="fill:none;stroke:#ccc;stroke-width:1px;"/><rect x="82.417" y="57.714" width="14.561" height="14.561" style="fill:none;stroke:#ccc;stroke-width:1px;"/><rect x="99.933" y="57.652" width="14.561" height="14.561" style="fill:none;stroke:#ccc;stroke-width:1px;"/><rect x="11.242" y="75.238" width="14.561" height="14.561" style="fill:none;stroke:#ccc;stroke-width:1px;"/><rect x="28.758" y="75.177" width="14.561" height="14.561" style="fill:none;stroke:#ccc;stroke-width:1px;"/><rect x="46.815" y="75.238" width="14.561" height="14.561" style="fill:none;stroke:#ccc;stroke-width:1px;"/><rect x="64.331" y="75.177" width="14.561" height="14.561" style="fill:none;stroke:#ccc;stroke-width:1px;"/><rect x="82.417" y="75.238" width="14.561" height="14.561" style="fill:none;stroke:#ccc;stroke-width:1px;"/><rect x="99.933" y="75.177" width="14.561" height="14.561" style="fill:none;stroke:#ccc;stroke-width:1px;"/><rect x="11.242" y="92.707" width="14.561" height="14.561" style="fill:none;stroke:#ccc;stroke-width:1px;"/><rect x="28.758" y="92.646" width="14.561" height="14.561" style="fill:none;stroke:#ccc;stroke-width:1px;"/><rect x="46.815" y="92.707" width="14.561" height="14.561" style="fill:none;stroke:#ccc;stroke-width:1px;"/><rect x="64.331" y="92.646" width="14.561" height="14.561" style="fill:none;stroke:#ccc;stroke-width:1px;"/><rect x="82.417" y="92.707" width="14.561" height="14.561" style="fill:none;stroke:#ccc;stroke-width:1px;"/><rect x="99.933" y="92.646" width="14.561" height="14.561" style="fill:none;stroke:#ccc;stroke-width:1px;"/><rect x="16.73" y="0.171" width="3" height="17.549" style="fill:#ccc;"/><rect x="106.587" y="0.108" width="3" height="18.106" style="fill:#ccc;"/><path d="M108.068,20.81l-1.256,-2.512l2.512,0l-1.256,2.512Z" style="fill:#ccc;stroke:#ccc;stroke-width:0.5px;"/><path d="M18.226,20.284l-1.256,-2.512l2.512,0l-1.256,2.512Z" style="fill:#ccc;stroke:#ccc;stroke-width:0.5px;"/></svg>