<?xml version="1.0" encoding="UTF-8" standalone="no"?><!DOCTYPE svg PUBLIC "-//W3C//DTD SVG 1.1//EN" "http://www.w3.org/Graphics/SVG/1.1/DTD/svg11.dtd"><svg width="100%" height="100%" viewBox="0 0 128 128" version="1.1" xmlns="http://www.w3.org/2000/svg" xmlns:xlink="http://www.w3.org/1999/xlink" xml:space="preserve" xmlns:serif="http://www.serif.com/" style="fill-rule:evenodd;clip-rule:evenodd;stroke-linejoin:round;stroke-miterlimit:1.41421;"><path d="M64,53.806c5.626,0 10.194,4.568 10.194,10.194c0,5.626 -4.568,10.194 -10.194,10.194c-5.626,0 -10.194,-4.568 -10.194,-10.194c0,-5.626 4.568,-10.194 10.194,-10.194Zm-37.423,0c5.626,0 10.194,4.568 10.194,10.194c0,5.626 -4.568,10.194 -10.194,10.194c-5.626,0 -10.194,-4.568 -10.194,-10.194c0,-5.626 4.568,-10.194 10.194,-10.194Zm74.809,0c5.626,0 10.194,4.568 10.194,10.194c0,5.626 -4.568,10.194 -10.194,10.194c-5.626,0 -10.194,-4.568 -10.194,-10.194c0,-5.626 4.568,-10.194 10.194,-10.194Z" style="fill:#072c34;"/></svg>