<?xml version="1.0" encoding="UTF-8" standalone="no"?><!DOCTYPE svg PUBLIC "-//W3C//DTD SVG 1.1//EN" "http://www.w3.org/Graphics/SVG/1.1/DTD/svg11.dtd"><svg width="100%" height="100%" viewBox="0 0 128 128" version="1.1" xmlns="http://www.w3.org/2000/svg" xmlns:xlink="http://www.w3.org/1999/xlink" xml:space="preserve" xmlns:serif="http://www.serif.com/" style="fill-rule:evenodd;clip-rule:evenodd;stroke-linecap:round;stroke-linejoin:round;stroke-miterlimit:1.5;"><path d="M64,44.186l37.17,32.43l-74.34,0l37.17,-32.43Z" style="fill:#ccc;stroke:#ccc;stroke-width:3.5px;"/><path d="M62.123,29.69c-0.416,-0.363 -0.458,-0.995 -0.096,-1.411l1.315,-1.506c0.363,-0.416 0.995,-0.459 1.411,-0.096l46.278,40.401c0.416,0.363 0.459,0.995 0.096,1.411l-1.315,1.506c-0.363,0.416 -0.995,0.459 -1.411,0.096l-46.278,-40.401Z" style="fill:#ccc;stroke:#ccc;stroke-width:3.5px;"/><path d="M65.877,29.69c0.416,-0.363 0.458,-0.995 0.096,-1.411l-1.315,-1.506c-0.363,-0.416 -0.995,-0.459 -1.411,-0.096l-46.278,40.401c-0.416,0.363 -0.459,0.995 -0.096,1.411l1.315,1.506c0.363,0.416 0.995,0.459 1.411,0.096l46.278,-40.401Z" style="fill:#ccc;stroke:#ccc;stroke-width:3.5px;"/><rect x="26.83" y="74.382" width="74.341" height="15.587" style="fill:#ccc;"/><path d="M53.929,76.958c0,-1.422 -1.154,-2.576 -2.576,-2.576l-23.469,0c-1.422,0 -2.576,1.154 -2.576,2.576l0,48.466c0,1.422 1.154,2.576 2.576,2.576l23.469,0c1.422,0 2.576,-1.154 2.576,-2.576l0,-48.466Z" style="fill:#ccc;"/><path d="M102.703,76.947c0,-1.416 -1.149,-2.565 -2.565,-2.565l-23.502,0c-1.416,0 -2.565,1.149 -2.565,2.565l0,48.488c0,1.416 1.149,2.565 2.565,2.565l23.502,0c1.416,0 2.565,-1.149 2.565,-2.565l0,-48.488Z" style="fill:#ccc;"/><path d="M77.647,93.281l-3.576,0l0,-2.075c0,-0.683 -0.554,-1.238 -1.237,-1.238l-17.694,0c-0.682,0 -1.237,0.555 -1.237,1.238l0,2.075l-2.504,0l0,-7.228l26.248,0l0,7.228Z" style="fill:#ccc;"/><path d="M99.217,36.919c0,-0.465 -0.378,-0.842 -0.843,-0.842l-7.677,0c-0.465,0 -0.842,0.377 -0.842,0.842l0,17.42c0,0.465 0.377,0.842 0.842,0.842l7.677,0c0.465,0 0.843,-0.377 0.843,-0.842l0,-17.42Z" style="fill:#ccc;"/></svg>