<?xml version="1.0" encoding="UTF-8" standalone="no"?>
<!DOCTYPE svg PUBLIC "-//W3C//DTD SVG 1.1//EN" "http://www.w3.org/Graphics/SVG/1.1/DTD/svg11.dtd">
<svg width="100%" height="100%" viewBox="0 0 28 34" version="1.1" xmlns="http://www.w3.org/2000/svg" xmlns:xlink="http://www.w3.org/1999/xlink" xml:space="preserve" xmlns:serif="http://www.serif.com/" style="fill-rule:evenodd;clip-rule:evenodd;stroke-linejoin:round;stroke-miterlimit:1.41421;">
    <g transform="matrix(0.301823,0,0,0.301823,-5.50014,-7.3329)">
        <path d="M64,24.234C83.187,24.234 105.762,46.134 98.765,64C91.501,82.546 83.187,67.982 64,67.982C44.813,67.982 35.992,83.729 29.235,64C23.018,45.848 44.813,24.234 64,24.234Z" style="fill:#ff4c4c;"/>
    </g>
    <g transform="matrix(0.377975,0,0,-0.393265,2.76643,40.6487)">
        <path d="M29.235,17.368L56.996,72.89L1.474,72.89L29.235,17.368Z" style="fill:#ff4c4c;"/>
    </g>
    <g transform="matrix(0.0931841,0,0,0.0887133,8.21702,5.39239)">
        <path d="M24.3,69.7L10.6,60L27.5,60L32.7,44.1L38,60L54.8,60L41.2,69.7L42.7,74.3L65.3,74.3L32.9,0L32.5,0L0,74.3L22.8,74.3L24.3,69.7Z" style="fill:#fff;fill-rule:nonzero;"/>
        <path d="M120.9,0L108,0L49.1,0L55.5,0L88,74.3L88.4,74.3L100.7,46.2L85.9,46.2L83.9,41.2L83.9,40.5L103.2,40.5L107.1,31.6L80,31.6L77.7,25.9L109.6,25.9L113.5,16.9L74.1,16.9L71.8,11.2L116,11.2L120.9,0Z" style="fill:#fff;fill-rule:nonzero;"/>
        <path d="M49.1,0L32.7,0L65.1,74.3L88.2,74.3L55.8,0L49.1,0Z" style="fill:#fff;fill-rule:nonzero;"/>
    </g>
</svg>
