<?xml version="1.0" encoding="utf-8"?>
<!-- Generator: Adobe Illustrator 22.1.0, SVG Export Plug-In . SVG Version: 6.00 Build 0)  -->
<svg version="1.1" id="Layer_1" xmlns="http://www.w3.org/2000/svg" xmlns:xlink="http://www.w3.org/1999/xlink" x="0px" y="0px"
	 viewBox="0 0 120.9 74.3" style="enable-background:new 0 0 120.9 74.3;" xml:space="preserve">
<style type="text/css">
	.st0{fill:#26DEFF;}
	.st1{fill:#FF4C4C;}
	.st2{fill:#082C33;}
</style>
<polygon class="st0" points="24.3,69.7 10.6,60 27.5,60 32.7,44.1 38,60 54.8,60 41.2,69.7 42.7,74.3 65.3,74.3 32.9,0 32.5,0 
	0,74.3 22.8,74.3 "/>
<polygon class="st1" points="120.9,0 108,0 49.1,0 55.5,0 88,74.3 88.4,74.3 100.7,46.2 85.9,46.2 83.9,41.2 83.9,40.5 103.2,40.5 
	107.1,31.6 80,31.6 77.7,25.9 109.6,25.9 113.5,16.9 74.1,16.9 71.8,11.2 116,11.2 "/>
<polygon class="st2" points="49.1,0 32.7,0 65.1,74.3 88.2,74.3 55.8,0 "/>
<g>
</g>
<g>
</g>
<g>
</g>
<g>
</g>
<g>
</g>
</svg>
