<?xml version="1.0" encoding="UTF-8" standalone="no"?><!DOCTYPE svg PUBLIC "-//W3C//DTD SVG 1.1//EN" "http://www.w3.org/Graphics/SVG/1.1/DTD/svg11.dtd"><svg width="100%" height="100%" viewBox="0 0 120 120" version="1.1" xmlns="http://www.w3.org/2000/svg" xmlns:xlink="http://www.w3.org/1999/xlink" xml:space="preserve" xmlns:serif="http://www.serif.com/" style="fill-rule:evenodd;clip-rule:evenodd;stroke-linejoin:round;stroke-miterlimit:1.41421;"><path d="M42.284,9.777c17.904,0 32.441,14.536 32.441,32.441c0,17.904 -14.537,32.441 -32.441,32.441c-17.905,0 -32.441,-14.537 -32.441,-32.441c0,-17.905 14.536,-32.441 32.441,-32.441Zm0,2.685c16.422,0 29.756,13.333 29.756,29.756c0,16.423 -13.334,29.756 -29.756,29.756c-16.423,0 -29.756,-13.333 -29.756,-29.756c0,-16.423 13.333,-29.756 29.756,-29.756Z" style="fill:#ccc;"/><path d="M100.226,99.441c0.345,-0.345 0.345,-0.903 0,-1.248l-34.271,-34.271c-0.344,-0.344 -0.903,-0.344 -1.247,0l-1.247,1.247c-0.345,0.344 -0.345,0.903 0,1.247l34.271,34.272c0.344,0.344 0.903,0.344 1.247,0l1.247,-1.247Z" style="fill:#ccc;"/></svg>