<?xml version="1.0" encoding="UTF-8" standalone="no"?><!DOCTYPE svg PUBLIC "-//W3C//DTD SVG 1.1//EN" "http://www.w3.org/Graphics/SVG/1.1/DTD/svg11.dtd"><svg width="100%" height="100%" viewBox="0 0 128 128" version="1.1" xmlns="http://www.w3.org/2000/svg" xmlns:xlink="http://www.w3.org/1999/xlink" xml:space="preserve" xmlns:serif="http://www.serif.com/" style="fill-rule:evenodd;clip-rule:evenodd;stroke-linejoin:round;stroke-miterlimit:1.41421;"><path d="M83.091,27.209c-0.568,-1.759 -0.875,-3.636 -0.875,-5.584c0,-10.042 8.154,-18.195 18.196,-18.195c10.043,0 18.196,8.153 18.196,18.195c0,10.043 -8.153,18.196 -18.196,18.196c-6.441,0 -12.105,-3.354 -15.339,-8.41l-41.457,23.935c1.395,2.575 2.188,5.522 2.188,8.654c0,3.531 -1.008,6.828 -2.751,9.619l41.447,23.929c3.107,-5.586 9.071,-9.369 15.912,-9.369c10.043,0 18.196,8.153 18.196,18.196c0,10.042 -8.153,18.195 -18.196,18.195c-10.042,0 -18.196,-8.153 -18.196,-18.195c0,-1.545 0.193,-3.045 0.556,-4.478l-42.695,-24.65c-3.258,3.068 -7.645,4.949 -12.469,4.949c-10.042,0 -18.196,-8.153 -18.196,-18.196c0,-10.043 8.154,-18.196 18.196,-18.196c5.239,0 9.964,2.219 13.286,5.768l42.197,-24.363Zm17.321,65.387c7.605,0 13.779,6.174 13.779,13.779c0,7.604 -6.174,13.778 -13.779,13.778c-7.604,0 -13.778,-6.174 -13.778,-13.778c0,-7.605 6.174,-13.779 13.778,-13.779Zm-72.804,-42.374c7.605,0 13.779,6.174 13.779,13.778c0,7.604 -6.174,13.778 -13.779,13.778c-7.604,0 -13.778,-6.174 -13.778,-13.778c0,-7.604 6.174,-13.778 13.778,-13.778Zm72.804,-42.375c7.605,0 13.779,6.174 13.779,13.778c0,7.605 -6.174,13.779 -13.779,13.779c-7.604,0 -13.778,-6.174 -13.778,-13.779c0,-7.604 6.174,-13.778 13.778,-13.778Z" style="fill:#ccc;"/></svg>