<?xml version="1.0" encoding="UTF-8" standalone="no"?><!DOCTYPE svg PUBLIC "-//W3C//DTD SVG 1.1//EN" "http://www.w3.org/Graphics/SVG/1.1/DTD/svg11.dtd"><svg width="100%" height="100%" viewBox="0 0 128 128" version="1.1" xmlns="http://www.w3.org/2000/svg" xmlns:xlink="http://www.w3.org/1999/xlink" xml:space="preserve" xmlns:serif="http://www.serif.com/" style="fill-rule:evenodd;clip-rule:evenodd;stroke-linejoin:round;stroke-miterlimit:1.41421;"><clipPath id="_clip1"><rect x="34.949" y="74.004" width="58.101" height="23.958"/></clipPath><g clip-path="url(#_clip1)"><path d="M64,39.861c16.034,0 29.051,13.018 29.051,29.051c0,16.034 -13.017,29.051 -29.051,29.051c-16.034,0 -29.051,-13.017 -29.051,-29.051c0,-16.033 13.017,-29.051 29.051,-29.051Zm0,2.849c14.461,0 26.202,11.741 26.202,26.202c0,14.462 -11.741,26.202 -26.202,26.202c-14.461,0 -26.202,-11.74 -26.202,-26.202c0,-14.461 11.741,-26.202 26.202,-26.202Z" style="fill:#ccc;"/></g><path d="M64,15.63c26.696,0 48.37,21.674 48.37,48.37c0,26.696 -21.674,48.37 -48.37,48.37c-26.696,0 -48.37,-21.674 -48.37,-48.37c0,-26.696 21.674,-48.37 48.37,-48.37Zm0,3.87c24.56,0 44.5,19.94 44.5,44.5c0,24.56 -19.94,44.5 -44.5,44.5c-24.56,0 -44.5,-19.94 -44.5,-44.5c0,-24.56 19.94,-44.5 44.5,-44.5Zm-18.043,21.044c2.14,0 3.877,1.737 3.877,3.877c0,2.139 -1.737,3.876 -3.877,3.876c-2.14,0 -3.877,-1.737 -3.877,-3.876c0,-2.14 1.737,-3.877 3.877,-3.877Zm36.119,0c2.139,0 3.877,1.737 3.877,3.877c0,2.139 -1.738,3.876 -3.877,3.876c-2.14,0 -3.877,-1.737 -3.877,-3.876c0,-2.14 1.737,-3.877 3.877,-3.877Z" style="fill:#ccc;"/></svg>