<?xml version="1.0" encoding="UTF-8" standalone="no"?><!DOCTYPE svg PUBLIC "-//W3C//DTD SVG 1.1//EN" "http://www.w3.org/Graphics/SVG/1.1/DTD/svg11.dtd"><svg width="100%" height="100%" viewBox="0 0 256 128" version="1.1" xmlns="http://www.w3.org/2000/svg" xmlns:xlink="http://www.w3.org/1999/xlink" xml:space="preserve" xmlns:serif="http://www.serif.com/" style="fill-rule:evenodd;clip-rule:evenodd;stroke-linecap:round;stroke-linejoin:round;stroke-miterlimit:1.5;"><g id="House"><g id="Roof"><path d="M68.474,44.186l37.17,32.43l-74.341,0l37.171,-32.43Z" style="fill:#ccc;stroke:#ccc;stroke-width:3.5px;"/><path d="M66.597,33.734c-0.416,-0.363 -0.459,-0.995 -0.096,-1.41l1.315,-1.507c0.363,-0.415 0.995,-0.458 1.411,-0.095l46.278,40.401c0.416,0.363 0.458,0.995 0.095,1.41l-1.315,1.507c-0.362,0.415 -0.995,0.458 -1.41,0.095l-46.278,-40.401Z" style="fill:#ccc;stroke:#ccc;stroke-width:3.5px;"/><path d="M70.351,33.734c0.415,-0.363 0.458,-0.995 0.095,-1.41l-1.315,-1.507c-0.363,-0.415 -0.995,-0.458 -1.41,-0.095l-46.278,40.401c-0.416,0.363 -0.459,0.995 -0.096,1.41l1.315,1.507c0.363,0.415 0.995,0.458 1.411,0.095l46.278,-40.401Z" style="fill:#ccc;stroke:#ccc;stroke-width:3.5px;"/><g id="Chimney"><path d="M103.774,41.254c0,-0.465 -0.378,-0.843 -0.843,-0.843l-7.677,0c-0.465,0 -0.842,0.378 -0.842,0.843l0,17.419c0,0.465 0.377,0.843 0.842,0.843l7.677,0c0.465,0 0.843,-0.378 0.843,-0.843l0,-17.419Z" style="fill:#ccc;"/><path d="M100.165,29.877c0.028,0 -0.673,0.929 -0.714,1.012c-0.092,0.181 -0.275,0.394 -0.386,0.614c-0.206,0.405 0.138,0.606 0.37,1.071c0.465,0.93 -0.04,1.363 -0.666,2.201c-0.792,1.06 0.558,1.504 0.525,1.844c-0.039,0.408 -0.839,1.136 -1.048,1.468c-0.132,0.21 -0.898,1.241 -1.033,1.376" style="fill:#ccc;stroke:#ccc;stroke-width:0.5px;"/><path d="M104.037,28.856c0.028,0 -0.672,0.93 -0.714,1.012c-0.092,0.181 -0.275,0.395 -0.386,0.614c-0.206,0.405 0.138,0.606 0.37,1.072c0.465,0.929 -0.04,1.363 -0.666,2.201c-0.792,1.059 0.558,1.503 0.525,1.844c-0.038,0.408 -0.838,1.136 -1.048,1.468c-0.132,0.209 -0.898,1.24 -1.033,1.375" style="fill:#ccc;stroke:#ccc;stroke-width:0.5px;"/></g></g><g id="Foundation"><rect x="31.303" y="74.382" width="74.341" height="12.767" style="fill:#ccc;"/><rect x="29.782" y="112.05" width="53.185" height="15.95" style="fill:#ccc;"/><path d="M101.42,128l-17.617,0l0,-36.821l17.617,0l0,36.821Zm-2.036,-18.411c0.506,0 0.917,0.411 0.917,0.917c0,0.506 -0.411,0.917 -0.917,0.917c-0.506,0 -0.917,-0.411 -0.917,-0.917c0,-0.506 0.411,-0.917 0.917,-0.917Zm0.917,-8.943l-7.317,0l0,7.317l7.317,0l0,-7.317Zm-8.036,0l-7.317,0l0,7.317l7.317,0l0,-7.317Zm8.036,-8.124l-7.317,0l0,7.317l7.317,0l0,-7.317Zm-8.036,0l-7.317,0l0,7.317l7.317,0l0,-7.317Z" style="fill:#ccc;"/><path d="M105.644,93.582l-3.41,0l0,-2.075c0,-0.683 -0.529,-1.237 -1.18,-1.237l-16.873,0c-0.651,0 -1.18,0.554 -1.18,1.237l0,2.075l-2.388,0l0,-7.228l25.031,0l0,7.228Z" style="fill:#ccc;"/><rect x="102.233" y="92.751" width="3.411" height="35.249" style="fill:#ccc;"/><rect x="103.119" y="76.616" width="3.704" height="51.384" style="fill:#ccc;"/><path d="M78.18,128l-43.612,0c-2.641,0 -4.786,-2.145 -4.786,-4.787l0,-44.045c0,-2.641 2.145,-4.786 4.786,-4.786l43.612,0c2.642,0 4.787,2.145 4.787,4.786l0,44.045c0,2.642 -2.145,4.787 -4.787,4.787Zm-1.982,-17.229l0,-21.8l-42.6,0l0,21.8l42.6,0Zm-1.016,-20.803l0,19.621l-40.399,0l0,-19.621l40.399,0Zm-27.284,1.076l-12.034,0l0,17.436l12.034,0l0,-17.436Zm13.067,0l-12.034,0l0,17.436l12.034,0l0,-17.436Zm13.106,0l-12.034,0l0,17.436l12.034,0l0,-17.436Z" style="fill:#ccc;"/></g><g id="Flag"><path d="M121.848,81.542c0.079,0.124 0.042,0.289 -0.082,0.368l-15.427,9.788c-0.125,0.079 -0.289,0.042 -0.368,-0.082l-0.285,-0.45c-0.079,-0.124 -0.042,-0.289 0.082,-0.367l15.427,-9.789c0.125,-0.079 0.289,-0.042 0.368,0.082l0.285,0.45Z" style="fill:#ccc;"/><circle cx="122.534" cy="80.765" r="0.644" style="fill:#ccc;"/><path d="M129.282,91.74l-1.561,-2.083l-0.806,-0.517l-1.733,-3.299l-0.647,-0.721l-0.899,-0.541l-1.645,-2.591l-6.827,4.335l2.293,2.793l0.987,0.485l0.613,0.665l1.412,2.284l0.898,0.523l0.692,1.011l0.807,1.294l6.416,-3.638Z" style="fill:#ccc;"/></g><g id="Disco"><path d="M40.213,82.293c0.131,0 0.238,0.107 0.238,0.238l0,10.646l-0.953,0l0,-10.646c0,-0.131 0.107,-0.238 0.238,-0.238l0.477,0Z" style="fill:#ccc;"/><path d="M39.498,98.883l0,-0.471l0.953,0l0,0.471c-0.154,0.03 -0.314,0.045 -0.477,0.045c-0.162,0 -0.322,-0.015 -0.476,-0.045Zm-1.051,-0.471l0.83,0l0,0.418c-0.304,-0.087 -0.585,-0.231 -0.83,-0.418Zm3.055,0c-0.245,0.187 -0.526,0.331 -0.83,0.418l0,-0.418l0.83,0Zm-2.225,-0.221l-0.953,0l0,-0.953l0.953,0l0,0.953Zm1.174,0l-0.953,0l0,-0.953l0.953,0l0,0.953Zm1.174,0l-0.953,0l0,-0.953l0.953,0l0,0.953Zm-4.032,-0.953l0.51,0l0,0.858c-0.223,-0.246 -0.398,-0.537 -0.51,-0.858Zm4.763,0c-0.113,0.321 -0.287,0.612 -0.51,0.858l0,-0.858l0.51,0Zm-4.88,-1.174l0.627,0l0,0.954l-0.576,0c-0.048,-0.196 -0.074,-0.401 -0.074,-0.612c0,-0.116 0.007,-0.23 0.023,-0.342Zm1.801,0.954l-0.953,0l0,-0.954l0.953,0l0,0.954Zm1.174,0l-0.953,0l0,-0.954l0.953,0l0,0.954Zm1.174,0l-0.953,0l0,-0.954l0.953,0l0,0.954Zm0.848,-0.954c0.015,0.112 0.023,0.226 0.023,0.342c0,0.211 -0.026,0.416 -0.075,0.612l-0.575,0l0,-0.954l0.627,0Zm-4.514,-1.173l0.144,0l0,0.953l-0.587,0c0.08,-0.352 0.233,-0.675 0.443,-0.953Zm1.318,0.953l-0.953,0l0,-0.953l0.953,0l0,0.953Zm1.174,0l-0.953,0l0,-0.953l0.953,0l0,0.953Zm1.174,0l-0.953,0l0,-0.953l0.953,0l0,0.953Zm0.364,-0.953c0.21,0.278 0.364,0.601 0.444,0.953l-0.587,0l0,-0.953l0.143,0Zm-2.712,-0.909l0,0.688l-0.953,0l0,-0.17c0.273,-0.236 0.597,-0.415 0.953,-0.518Zm0.221,-0.052c0.154,-0.03 0.314,-0.046 0.476,-0.046c0.163,0 0.323,0.016 0.477,0.046l0,0.74l-0.953,0l0,-0.74Zm1.174,0.052c0.356,0.103 0.68,0.282 0.953,0.518l0,0.17l-0.953,0l0,-0.688Z" style="fill:#ccc;"/><path d="M42.496,93.393l0.099,0.253l0.183,-0.043l-0.043,0.183l0.253,0.098l-0.253,0.099l0.043,0.183l-0.183,-0.043l-0.099,0.253l-0.099,-0.253l-0.182,0.043l0.042,-0.183l-0.253,-0.099l0.253,-0.098l-0.042,-0.183l0.182,0.043l0.099,-0.253Z" style="fill:#ccc;"/><path d="M42.988,97.522l0.12,0.307l0.221,-0.052l-0.051,0.221l0.307,0.12l-0.307,0.121l0.051,0.221l-0.221,-0.052l-0.12,0.307l-0.12,-0.307l-0.221,0.052l0.051,-0.221l-0.307,-0.121l0.307,-0.12l-0.051,-0.221l0.221,0.052l0.12,-0.307Z" style="fill:#ccc;"/><path d="M43.38,94.289l0.128,0.329l0.237,-0.056l-0.055,0.237l0.328,0.129l-0.328,0.128l0.055,0.237l-0.237,-0.055l-0.128,0.328l-0.129,-0.328l-0.237,0.055l0.056,-0.237l-0.329,-0.128l0.329,-0.129l-0.056,-0.237l0.237,0.056l0.129,-0.329Z" style="fill:#ccc;"/></g></g><g id="Right-Fence" serif:id="Right Fence"><path d="M116.694,113.047l0,14.953l-2.706,0l0,-14.953l1.353,-2.706l1.353,2.706Z" style="fill:#ccc;"/><path d="M121.639,113.047l0,14.953l-2.706,0l0,-14.953l1.353,-2.706l1.353,2.706Z" style="fill:#ccc;"/><path d="M126.608,113.047l0,14.953l-2.706,0l0,-14.953l1.353,-2.706l1.353,2.706Z" style="fill:#ccc;"/><path d="M131.554,113.047l0,14.953l-2.707,0l0,-14.953l1.354,-2.706l1.353,2.706Z" style="fill:#ccc;"/><path d="M116.694,113.047l0,14.953l-2.706,0l0,-14.953l1.353,-2.706l1.353,2.706Z" style="fill:#ccc;"/><path d="M121.639,113.047l0,14.953l-2.706,0l0,-14.953l1.353,-2.706l1.353,2.706Z" style="fill:#ccc;"/><path d="M126.608,113.047l0,14.953l-2.706,0l0,-14.953l1.353,-2.706l1.353,2.706Z" style="fill:#ccc;"/><path d="M131.554,113.047l0,14.953l-2.707,0l0,-14.953l1.354,-2.706l1.353,2.706Z" style="fill:#ccc;"/><path d="M116.694,113.047l0,14.953l-2.706,0l0,-14.953l1.353,-2.706l1.353,2.706Z" style="fill:#ccc;"/><path d="M121.639,113.047l0,14.953l-2.706,0l0,-14.953l1.353,-2.706l1.353,2.706Z" style="fill:#ccc;"/><path d="M126.608,113.047l0,14.953l-2.706,0l0,-14.953l1.353,-2.706l1.353,2.706Z" style="fill:#ccc;"/><path d="M131.554,113.047l0,14.953l-2.707,0l0,-14.953l1.354,-2.706l1.353,2.706Z" style="fill:#ccc;"/><path d="M136.54,113.047l0,14.953l-2.706,0l0,-14.953l1.353,-2.706l1.353,2.706Z" style="fill:#ccc;"/><path d="M141.55,113.047l0,14.953l-2.706,0l0,-14.953l1.353,-2.706l1.353,2.706Z" style="fill:#ccc;"/><path d="M146.604,113.047l0,14.953l-2.707,0l0,-14.953l1.353,-2.706l1.354,2.706Z" style="fill:#ccc;"/><path d="M151.603,113.047l0,14.953l-2.706,0l0,-14.953l1.353,-2.706l1.353,2.706Z" style="fill:#ccc;"/><path d="M156.611,113.047l0,14.953l-2.706,0l0,-14.953l1.353,-2.706l1.353,2.706Z" style="fill:#ccc;"/><path d="M161.62,113.047l0,14.953l-2.706,0l0,-14.953l1.353,-2.706l1.353,2.706Z" style="fill:#ccc;"/><path d="M166.664,113.047l0,14.953l-2.706,0l0,-14.953l1.353,-2.706l1.353,2.706Z" style="fill:#ccc;"/><path d="M171.682,113.047l0,14.953l-2.706,0l0,-14.953l1.353,-2.706l1.353,2.706Z" style="fill:#ccc;"/><path d="M176.661,113.047l0,14.953l-2.706,0l0,-14.953l1.353,-2.706l1.353,2.706Z" style="fill:#ccc;"/><path d="M181.713,113.047l0,14.953l-2.706,0l0,-14.953l1.353,-2.706l1.353,2.706Z" style="fill:#ccc;"/><path d="M186.758,113.047l0,14.953l-2.706,0l0,-14.953l1.353,-2.706l1.353,2.706Z" style="fill:#ccc;"/><path d="M191.772,113.047l0,14.953l-2.707,0l0,-14.953l1.354,-2.706l1.353,2.706Z" style="fill:#ccc;"/><path d="M196.818,113.047l0,14.953l-2.706,0l0,-14.953l1.353,-2.706l1.353,2.706Z" style="fill:#ccc;"/><path d="M201.847,113.047l0,14.953l-2.706,0l0,-14.953l1.353,-2.706l1.353,2.706Z" style="fill:#ccc;"/><path d="M206.834,113.047l0,14.953l-2.706,0l0,-14.953l1.353,-2.706l1.353,2.706Z" style="fill:#ccc;"/><path d="M211.841,113.047l0,14.953l-2.706,0l0,-14.953l1.353,-2.706l1.353,2.706Z" style="fill:#ccc;"/><path d="M216.879,113.047l0,14.953l-2.706,0l0,-14.953l1.353,-2.706l1.353,2.706Z" style="fill:#ccc;"/><path d="M221.912,113.047l0,14.953l-2.706,0l0,-14.953l1.353,-2.706l1.353,2.706Z" style="fill:#ccc;"/><path d="M226.912,113.047l0,14.953l-2.706,0l0,-14.953l1.353,-2.706l1.353,2.706Z" style="fill:#ccc;"/><path d="M231.915,113.047l0,14.953l-2.706,0l0,-14.953l1.353,-2.706l1.353,2.706Z" style="fill:#ccc;"/><path d="M236.969,113.047l0,14.953l-2.706,0l0,-14.953l1.353,-2.706l1.353,2.706Z" style="fill:#ccc;"/><path d="M241.929,113.047l0,14.953l-2.706,0l0,-14.953l1.353,-2.706l1.353,2.706Z" style="fill:#ccc;"/><path d="M246.956,113.047l0,14.953l-2.706,0l0,-14.953l1.353,-2.706l1.353,2.706Z" style="fill:#ccc;"/><path d="M251.917,113.047l0,14.953l-2.706,0l0,-14.953l1.353,-2.706l1.353,2.706Z" style="fill:#ccc;"/><rect x="112.963" y="124.672" width="140.262" height="0.925" style="fill:#ccc;"/><rect x="112.963" y="114.34" width="140.3" height="0.925" style="fill:#ccc;"/></g><g id="Left-Fence" serif:id="Left Fence"><path d="M7.486,113.047l0,14.953l-2.706,0l0,-14.953l1.353,-2.706l1.353,2.706Z" style="fill:#ccc;"/><path d="M13.087,113.047l0,14.953l-2.706,0l0,-14.953l1.353,-2.706l1.353,2.706Z" style="fill:#ccc;"/><path d="M17.866,113.047l0,14.953l-2.706,0l0,-14.953l1.353,-2.706l1.353,2.706Z" style="fill:#ccc;"/><path d="M22.896,113.047l0,14.953l-2.706,0l0,-14.953l1.353,-2.706l1.353,2.706Z" style="fill:#ccc;"/><path d="M2.706,113.047l0,14.953l-2.706,0l0,-14.953l1.353,-2.706l1.353,2.706Z" style="fill:#ccc;"/><rect x="0" y="114.34" width="23.928" height="0.925" style="fill:#ccc;"/><rect x="0" y="124.672" width="23.928" height="0.925" style="fill:#ccc;"/></g><g id="Tree"><g id="Tree-Leaves" serif:id="Tree Leaves"><path d="M166.342,36.485c1.129,-2.347 4.137,-4.068 7.562,-4.068c3.426,0 6.433,1.721 7.562,4.068c3.06,0.159 5.977,1.982 7.035,4.665c1.059,2.682 0.001,5.569 -2.362,7.179c0.763,2.445 -0.442,5.293 -3.213,6.951c-2.772,1.657 -6.433,1.721 -9.022,0.368c-2.588,1.353 -6.25,1.289 -9.022,-0.368c-2.771,-1.658 -3.976,-4.506 -3.213,-6.951c-2.362,-1.61 -3.421,-4.497 -2.362,-7.179c1.058,-2.683 3.976,-4.506 7.035,-4.665Z" style="fill:#ccc;"/><path d="M179.576,38.658c1.054,-2.214 3.865,-3.837 7.067,-3.837c3.202,0 6.013,1.623 7.068,3.837c2.859,0.15 5.586,1.87 6.575,4.4c0.99,2.53 0,5.254 -2.208,6.771c0.713,2.307 -0.413,4.993 -3.003,6.557c-2.59,1.564 -6.013,1.623 -8.432,0.347c-2.419,1.276 -5.842,1.217 -8.432,-0.347c-2.59,-1.564 -3.716,-4.25 -3.003,-6.557c-2.208,-1.517 -3.197,-4.241 -2.208,-6.771c0.989,-2.53 3.716,-4.25 6.576,-4.4Z" style="fill:#ccc;"/><path d="M192.724,43.685c0.553,-1.235 2.025,-2.141 3.703,-2.141c1.677,0 3.149,0.906 3.702,2.141c1.498,0.084 2.926,1.043 3.444,2.455c0.518,1.412 0,2.931 -1.156,3.778c0.373,1.287 -0.217,2.786 -1.574,3.659c-1.356,0.872 -3.149,0.905 -4.416,0.193c-1.268,0.712 -3.06,0.679 -4.417,-0.193c-1.357,-0.873 -1.947,-2.372 -1.574,-3.659c-1.156,-0.847 -1.674,-2.366 -1.156,-3.778c0.518,-1.412 1.946,-2.371 3.444,-2.455Z" style="fill:#ccc;"/><path d="M159.545,46.324c0.707,-1.54 2.592,-2.67 4.739,-2.67c2.147,0 4.032,1.13 4.74,2.67c1.917,0.104 3.746,1.301 4.409,3.062c0.664,1.76 0,3.656 -1.48,4.712c0.478,1.604 -0.277,3.474 -2.014,4.562c-1.737,1.088 -4.033,1.13 -5.655,0.242c-1.622,0.888 -3.917,0.846 -5.654,-0.242c-1.737,-1.088 -2.492,-2.958 -2.014,-4.562c-1.481,-1.056 -2.144,-2.952 -1.481,-4.712c0.663,-1.761 2.492,-2.958 4.41,-3.062Z" style="fill:#ccc;"/><path d="M179.322,33.361c0.58,-1.606 2.227,-2.79 4.113,-2.79c1.885,0 3.532,1.184 4.112,2.79c1.651,0.077 3.244,1.338 3.827,3.2c0.583,1.862 0.007,3.854 -1.285,4.923c0.44,1.654 -0.222,3.617 -1.748,4.768c-1.525,1.151 -3.528,1.198 -4.906,0.253c-1.379,0.945 -3.382,0.898 -4.907,-0.253c-1.526,-1.151 -2.188,-3.114 -1.748,-4.768c-1.292,-1.069 -1.867,-3.061 -1.285,-4.923c0.583,-1.862 2.177,-3.123 3.827,-3.2Z" style="fill:#ccc;"/><path d="M166.4,52.983c0.551,-0.804 2.021,-1.393 3.696,-1.393c1.674,0 3.144,0.589 3.696,1.393c1.495,0.054 2.921,0.678 3.438,1.597c0.518,0.918 0,1.907 -1.154,2.458c0.373,0.837 -0.216,1.812 -1.571,2.38c-1.354,0.567 -3.144,0.589 -4.409,0.126c-1.266,0.463 -3.055,0.441 -4.41,-0.126c-1.355,-0.568 -1.943,-1.543 -1.571,-2.38c-1.154,-0.551 -1.672,-1.54 -1.154,-2.458c0.517,-0.919 1.943,-1.543 3.439,-1.597Z" style="fill:#ccc;"/><path d="M172.725,49.638c0.361,-0.996 1.383,-1.731 2.554,-1.731c1.17,0 2.192,0.735 2.553,1.731c1.025,0.048 2.014,0.83 2.376,1.985c0.362,1.154 0.004,2.39 -0.798,3.054c0.273,1.026 -0.138,2.243 -1.085,2.957c-0.947,0.713 -2.19,0.743 -3.046,0.157c-0.857,0.586 -2.1,0.556 -3.047,-0.157c-0.947,-0.714 -1.358,-1.931 -1.085,-2.957c-0.802,-0.664 -1.159,-1.9 -0.798,-3.054c0.362,-1.155 1.351,-1.937 2.376,-1.985Z" style="fill:#ccc;"/><path d="M162.552,52.532c0.495,-1.106 1.817,-1.917 3.321,-1.917c1.505,0 2.827,0.811 3.322,1.917c1.344,0.074 2.626,0.934 3.091,2.198c0.465,1.263 0,2.624 -1.038,3.382c0.335,1.152 -0.194,2.494 -1.411,3.275c-1.218,0.781 -2.826,0.811 -3.964,0.174c-1.137,0.637 -2.745,0.607 -3.963,-0.174c-1.217,-0.781 -1.747,-2.123 -1.412,-3.275c-1.037,-0.758 -1.502,-2.119 -1.037,-3.382c0.465,-1.264 1.746,-2.124 3.091,-2.198Z" style="fill:#ccc;"/><path d="M170.328,47.905c0.646,-1.324 2.366,-2.295 4.326,-2.295c1.96,0 3.68,0.971 4.326,2.295c1.75,0.089 3.419,1.118 4.025,2.632c0.605,1.513 0,3.142 -1.352,4.049c0.437,1.38 -0.252,2.986 -1.838,3.922c-1.585,0.935 -3.68,0.971 -5.161,0.208c-1.481,0.763 -3.576,0.727 -5.161,-0.208c-1.586,-0.936 -2.275,-2.542 -1.838,-3.922c-1.352,-0.907 -1.957,-2.536 -1.352,-4.049c0.606,-1.514 2.275,-2.543 4.025,-2.632Z" style="fill:#ccc;"/><path d="M180.643,45.375c0.778,-1.536 2.85,-2.662 5.21,-2.662c2.36,0 4.432,1.126 5.209,2.662c2.108,0.103 4.118,1.297 4.847,3.052c0.729,1.755 0,3.644 -1.627,4.697c0.525,1.6 -0.305,3.464 -2.214,4.548c-1.909,1.085 -4.432,1.127 -6.215,0.242c-1.784,0.885 -4.306,0.843 -6.216,-0.242c-1.909,-1.084 -2.739,-2.948 -2.213,-4.548c-1.628,-1.053 -2.357,-2.942 -1.628,-4.697c0.729,-1.755 2.739,-2.949 4.847,-3.052Z" style="fill:#ccc;"/><path d="M190.614,51.039c0.461,-0.977 1.69,-1.694 3.09,-1.694c1.4,0 2.63,0.717 3.091,1.694c1.25,0.066 2.443,0.825 2.875,1.942c0.433,1.117 0,2.319 -0.965,2.989c0.311,1.018 -0.181,2.204 -1.314,2.894c-1.132,0.691 -2.629,0.717 -3.687,0.154c-1.058,0.563 -2.554,0.537 -3.687,-0.154c-1.132,-0.69 -1.625,-1.876 -1.313,-2.894c-0.966,-0.67 -1.398,-1.872 -0.966,-2.989c0.433,-1.117 1.625,-1.876 2.876,-1.942Z" style="fill:#ccc;"/><path d="M192.811,53.972c0.395,-0.889 1.448,-1.541 2.648,-1.541c1.2,0 2.253,0.652 2.649,1.541c1.071,0.06 2.093,0.751 2.464,1.768c0.37,1.016 0,2.11 -0.828,2.72c0.267,0.926 -0.155,2.006 -1.125,2.634c-0.971,0.628 -2.253,0.652 -3.16,0.139c-0.906,0.513 -2.189,0.489 -3.16,-0.139c-0.97,-0.628 -1.392,-1.708 -1.125,-2.634c-0.827,-0.61 -1.198,-1.704 -0.827,-2.72c0.37,-1.017 1.392,-1.708 2.464,-1.768Z" style="fill:#ccc;"/><path d="M196.539,45.014c0.224,-1.301 1.382,-2.301 2.752,-2.301c1.371,0 2.528,1 2.753,2.301c1.037,-0.129 2.137,0.971 2.561,2.639c0.423,1.668 0.038,3.386 -0.86,4.061c0.416,1.222 -0.061,2.902 -1.17,3.933c-1.109,1.031 -2.504,1.093 -3.284,0.208c-0.779,0.885 -2.175,0.823 -3.284,-0.208c-1.108,-1.031 -1.586,-2.711 -1.169,-3.933c-0.898,-0.675 -1.284,-2.393 -0.86,-4.061c0.423,-1.668 1.524,-2.768 2.561,-2.639Z" style="fill:#ccc;"/><path d="M187.673,36.051c0.53,-1.799 2.28,-3.142 4.305,-3.142c2.024,0 3.774,1.343 4.305,3.142c1.695,0.008 3.379,1.452 4.005,3.603c0.625,2.151 0.023,4.425 -1.345,5.544c0.517,1.804 -0.192,4.04 -1.829,5.369c-1.638,1.329 -3.76,1.391 -5.136,0.284c-1.376,1.107 -3.499,1.045 -5.136,-0.284c-1.638,-1.329 -2.347,-3.565 -1.83,-5.369c-1.367,-1.119 -1.97,-3.393 -1.345,-5.544c0.626,-2.151 2.31,-3.595 4.006,-3.603Z" style="fill:#ccc;"/><path d="M198.37,40.888c0.231,-0.925 1.101,-1.622 2.114,-1.622c1.014,0 1.884,0.697 2.115,1.622c0.821,-0.027 1.654,0.728 1.968,1.86c0.313,1.132 0.017,2.319 -0.661,2.863c0.276,0.908 -0.078,2.072 -0.899,2.772c-0.82,0.699 -1.872,0.735 -2.523,0.147c-0.65,0.588 -1.702,0.552 -2.523,-0.147c-0.82,-0.7 -1.174,-1.864 -0.898,-2.772c-0.678,-0.544 -0.974,-1.731 -0.661,-2.863c0.313,-1.132 1.147,-1.887 1.968,-1.86Z" style="fill:#ccc;"/><path d="M160.538,40.928c0.45,-0.959 1.649,-1.662 3.014,-1.662c1.366,0 2.565,0.703 3.015,1.662c1.219,0.065 2.382,0.81 2.804,1.906c0.422,1.096 0,2.276 -0.942,2.933c0.304,0.999 -0.176,2.162 -1.28,2.84c-1.105,0.677 -2.565,0.703 -3.597,0.15c-1.031,0.553 -2.491,0.527 -3.596,-0.15c-1.104,-0.678 -1.585,-1.841 -1.281,-2.84c-0.941,-0.657 -1.363,-1.837 -0.941,-2.933c0.422,-1.096 1.585,-1.841 2.804,-1.906Z" style="fill:#ccc;"/><path d="M161.331,30.907c1.203,-2.604 4.411,-4.513 8.064,-4.513c3.653,0 6.86,1.909 8.064,4.513c3.263,0.175 6.374,2.198 7.502,5.173c1.129,2.975 0.001,6.178 -2.519,7.962c0.814,2.712 -0.471,5.871 -3.427,7.71c-2.955,1.839 -6.86,1.909 -9.62,0.408c-2.761,1.501 -6.666,1.431 -9.621,-0.408c-2.956,-1.839 -4.24,-4.998 -3.427,-7.71c-2.519,-1.784 -3.648,-4.987 -2.519,-7.962c1.129,-2.975 4.24,-4.998 7.503,-5.173Z" style="fill:#ccc;"/><path d="M179.101,23.107c1.386,-3.333 5.081,-5.776 9.289,-5.776c4.209,0 7.904,2.443 9.29,5.776c3.759,0.225 7.343,2.813 8.643,6.622c1.301,3.808 0,7.907 -2.902,10.191c0.937,3.471 -0.543,7.514 -3.947,9.868c-3.405,2.354 -7.904,2.444 -11.084,0.523c-3.179,1.921 -7.678,1.831 -11.083,-0.523c-3.404,-2.354 -4.884,-6.397 -3.947,-9.868c-2.902,-2.284 -4.203,-6.383 -2.902,-10.191c1.3,-3.809 4.884,-6.397 8.643,-6.622Z" style="fill:#ccc;"/><path d="M162.837,20.948c1.014,-2.087 3.716,-3.617 6.794,-3.617c3.077,0 5.78,1.53 6.793,3.617c2.749,0.141 5.37,1.762 6.321,4.147c0.951,2.386 0,4.953 -2.122,6.383c0.685,2.174 -0.397,4.706 -2.887,6.18c-2.49,1.475 -5.78,1.531 -8.105,0.328c-2.326,1.203 -5.616,1.147 -8.105,-0.328c-2.49,-1.474 -3.572,-4.006 -2.887,-6.18c-2.123,-1.43 -3.074,-3.997 -2.123,-6.383c0.951,-2.385 3.572,-4.006 6.321,-4.147Z" style="fill:#ccc;"/><path d="M174.779,20.094c0.78,-1.594 2.859,-2.763 5.228,-2.763c2.368,0 4.448,1.169 5.228,2.763c2.115,0.107 4.133,1.346 4.864,3.167c0.732,1.822 0,3.783 -1.633,4.875c0.527,1.661 -0.306,3.595 -2.222,4.721c-1.916,1.126 -4.448,1.169 -6.237,0.25c-1.79,0.919 -4.322,0.876 -6.238,-0.25c-1.916,-1.126 -2.749,-3.06 -2.222,-4.721c-1.633,-1.092 -2.365,-3.053 -1.633,-4.875c0.732,-1.821 2.749,-3.06 4.865,-3.167Z" style="fill:#ccc;"/><path d="M152.682,28.415c1.366,-3.332 5.008,-5.775 9.155,-5.775c4.147,0 7.788,2.443 9.155,5.775c3.704,0.225 7.236,2.814 8.518,6.622c1.281,3.809 0,7.907 -2.86,10.192c0.923,3.471 -0.536,7.514 -3.891,9.868c-3.355,2.353 -7.788,2.443 -10.922,0.523c-3.134,1.92 -7.567,1.83 -10.923,-0.523c-3.355,-2.354 -4.813,-6.397 -3.89,-9.868c-2.86,-2.285 -4.142,-6.383 -2.86,-10.192c1.282,-3.808 4.814,-6.397 8.518,-6.622Z" style="fill:#ccc;"/><path d="M189.022,28.415c1.366,-3.332 5.007,-5.775 9.155,-5.775c4.147,0 7.788,2.443 9.155,5.775c3.704,0.225 7.236,2.814 8.517,6.622c1.282,3.809 0.001,7.907 -2.859,10.192c0.923,3.471 -0.536,7.514 -3.891,9.868c-3.355,2.353 -7.789,2.443 -10.922,0.523c-3.134,1.92 -7.567,1.83 -10.923,-0.523c-3.355,-2.354 -4.813,-6.397 -3.89,-9.868c-2.86,-2.285 -4.142,-6.383 -2.86,-10.192c1.282,-3.808 4.813,-6.397 8.518,-6.622Z" style="fill:#ccc;"/><path d="M173.96,18.523c1.366,-3.332 5.007,-5.776 9.154,-5.776c4.148,0 7.789,2.444 9.155,5.776c3.705,0.225 7.237,2.814 8.518,6.622c1.282,3.808 0,7.907 -2.86,10.191c0.923,3.471 -0.535,7.515 -3.89,9.868c-3.355,2.354 -7.789,2.444 -10.923,0.524c-3.133,1.92 -7.567,1.83 -10.922,-0.524c-3.355,-2.353 -4.814,-6.397 -3.89,-9.868c-2.86,-2.284 -4.142,-6.383 -2.86,-10.191c1.281,-3.808 4.813,-6.397 8.518,-6.622Z" style="fill:#ccc;"/></g><g id="Tree-branches" serif:id="Tree branches"><path d="M190.649,103.699c-0.879,-3.759 -3.115,-14.412 -4.528,-24.362c-0.665,-4.691 -0.798,-9.158 -0.562,-11.413c0.051,-0.494 0.698,-2.4 1.793,-3.924c1.018,-1.415 2.49,-2.48 2.554,-2.317l-3.65,-1.439l-1.655,1.537l-2.152,3.622l-1.219,4.34l-1.375,-0.393l-1.094,-2.008l-2.801,-5.376l-3.166,0.883c1.027,2.03 3.722,6.133 3.722,8.424l1.338,9.512l2.174,11.403l0.322,14.836c-0.776,6.874 -1.171,10.371 -0.915,16.028l-1.747,4.948c12.326,0.104 1.571,0 3.862,0l11.139,0c2.291,0 2.913,0.111 10.457,0l-7.1,-9.39l-5.397,-14.911Z" style="fill:#ccc;"/><path d="M171.8,63.131l-1.426,0.167l1.211,1.952l2.419,2.605l2.196,1.614l-0.281,-1.35l-1.637,-1.625l-1.488,-1.643l-0.994,-1.72Z" style="fill:#ccc;"/><path d="M181.614,60.244l-2.31,0l0.181,1.385l0.842,1.502l0.807,1.368l1.237,1.145l1.131,-1.644l-0.886,-0.869l-0.887,-1.557l-0.115,-1.33Z" style="fill:#ccc;"/></g><g id="Bird"><path d="M211.704,26.705c0.971,0 1.759,0.788 1.759,1.759c0,0.971 -0.788,1.759 -1.759,1.759c-0.971,0 -1.759,-0.788 -1.759,-1.759c0,-0.971 0.788,-1.759 1.759,-1.759Zm0.395,0.172c0.218,0 0.395,0.177 0.395,0.395c0,0.218 -0.177,0.395 -0.395,0.395c-0.218,0 -0.395,-0.177 -0.395,-0.395c0,-0.218 0.177,-0.395 0.395,-0.395Z" style="fill:#ccc;stroke:#ccc;stroke-width:0.25px;"/><path d="M214.236,28.026l-0.733,0.601l-0.188,-0.826l0.921,0.225Z" style="fill:#ccc;"/><path d="M214.236,28.863l-0.932,0.172l0.235,-0.815l0.697,0.643Z" style="fill:#ccc;"/><g id="Chirp"><path d="M217.229,25.177c-0.009,-0.047 -0.055,-0.079 -0.103,-0.07l-1.543,0.293c-0.048,0.009 -0.08,0.055 -0.071,0.103l0.033,0.173c0.009,0.048 0.055,0.08 0.103,0.071l1.544,-0.293c0.048,-0.009 0.079,-0.055 0.07,-0.103l-0.033,-0.174Z" style="fill:#ccc;"/><path d="M215.667,25.466c0,-0.022 -0.017,-0.039 -0.039,-0.039l-0.078,0c-0.022,0 -0.039,0.017 -0.039,0.039l0,1.428c0,0.022 0.017,0.039 0.039,0.039l0.078,0c0.022,0 0.039,-0.017 0.039,-0.039l0,-1.428Z" style="fill:#ccc;"/><path d="M217.263,25.131c0,-0.014 -0.011,-0.025 -0.025,-0.025l-0.052,0c-0.014,0 -0.025,0.011 -0.025,0.025l0,1.466c0,0.014 0.011,0.026 0.025,0.026l0.052,0c0.014,0 0.025,-0.012 0.025,-0.026l0,-1.466Z" style="fill:#ccc;"/><path d="M217.201,25.667l-1.612,0.312l0.016,0.082l1.611,-0.312l-0.015,-0.082Z" style="fill:#ccc;"/><circle cx="215.357" cy="26.933" r="0.311" style="fill:#ccc;"/><circle cx="216.953" cy="26.623" r="0.311" style="fill:#ccc;"/></g><g id="Chirp1" serif:id="Chirp"><path d="M214.752,22.755c-0.009,-0.048 -0.055,-0.079 -0.103,-0.07l-1.544,0.292c-0.048,0.009 -0.079,0.056 -0.07,0.104l0.033,0.173c0.009,0.048 0.055,0.079 0.103,0.07l1.543,-0.293c0.048,-0.009 0.08,-0.055 0.071,-0.103l-0.033,-0.173Z" style="fill:#ccc;"/><path d="M213.19,23.044c0,-0.022 -0.017,-0.04 -0.039,-0.04l-0.078,0c-0.022,0 -0.04,0.018 -0.04,0.04l0,1.428c0,0.021 0.018,0.039 0.04,0.039l0.078,0c0.022,0 0.039,-0.018 0.039,-0.039l0,-1.428Z" style="fill:#ccc;"/><path d="M214.786,22.709c0,-0.014 -0.011,-0.026 -0.026,-0.026l-0.051,0c-0.014,0 -0.026,0.012 -0.026,0.026l0,1.465c0,0.015 0.012,0.026 0.026,0.026l0.051,0c0.015,0 0.026,-0.011 0.026,-0.026l0,-1.465Z" style="fill:#ccc;"/><path d="M214.723,23.245l-1.611,0.312l0.016,0.082l1.611,-0.313l-0.016,-0.081Z" style="fill:#ccc;"/><circle cx="212.879" cy="24.511" r="0.311" style="fill:#ccc;"/><circle cx="214.476" cy="24.2" r="0.311" style="fill:#ccc;"/></g></g></g><g id="Bee"><path d="M224.914,78.795c0.496,-0.096 0.944,0.056 0.998,0.34c0.055,0.283 -0.304,0.59 -0.801,0.686c-0.496,0.096 -0.944,-0.057 -0.998,-0.34c-0.055,-0.283 0.304,-0.59 0.801,-0.686Z" style="fill:#ccc;stroke:#ccc;stroke-width:0.5px;"/><path d="M226.113,78.046c0.253,-0.049 0.495,0.098 0.539,0.328c0.044,0.231 -0.125,0.457 -0.378,0.506c-0.253,0.049 -0.494,-0.099 -0.539,-0.329c-0.044,-0.23 0.125,-0.456 0.378,-0.505Z" style="fill:#ccc;stroke:#ccc;stroke-width:0.5px;"/><g><path d="M220.507,84.304c-0.917,-0.2 -1.5,-1.107 -1.3,-2.025c0.2,-0.918 1.108,-1.5 2.025,-1.3c0.493,0.107 0.89,0.419 1.12,0.826c0.198,0.352 0.273,0.774 0.181,1.199" style="fill:none;stroke:#ccc;stroke-width:0.25px;"/><path d="M222.506,83.128c-0.918,-0.201 -1.501,-1.108 -1.301,-2.026c0.201,-0.917 1.108,-1.5 2.026,-1.3" style="fill:none;stroke:#ccc;stroke-width:0.25px;"/><path d="M217.182,83.579c0.2,-0.917 1.108,-1.5 2.025,-1.3c0.918,0.2 1.5,1.108 1.3,2.025" style="fill:none;stroke:#ccc;stroke-width:0.25px;"/></g><path d="M224.991,79.817c0.004,-0.024 -0.014,-0.047 -0.038,-0.05l-0.088,-0.011c-0.024,-0.004 -0.046,0.013 -0.049,0.038l-0.058,0.438c-0.003,0.025 0.014,0.047 0.038,0.05l0.088,0.012c0.024,0.003 0.046,-0.014 0.049,-0.038l0.058,-0.439Z" style="fill:#ccc;"/><path d="M225.599,79.674c-0.007,-0.032 -0.039,-0.053 -0.072,-0.046l-0.116,0.026c-0.033,0.007 -0.053,0.039 -0.046,0.072l0.117,0.527c0.007,0.032 0.039,0.052 0.071,0.045l0.117,-0.026c0.032,-0.007 0.052,-0.039 0.045,-0.071l-0.116,-0.527Z" style="fill:#ccc;"/><path d="M223.558,77.909c0.153,-0.218 0.59,-0.175 0.976,0.096c0.385,0.272 0.573,0.669 0.42,0.887c-0.154,0.218 -0.591,0.174 -0.976,-0.097c-0.386,-0.271 -0.574,-0.669 -0.42,-0.886Z" style="fill:none;stroke:#ccc;stroke-width:0.1px;"/><path d="M224.854,77.367c0.267,-0.008 0.495,0.368 0.509,0.839c0.015,0.471 -0.19,0.86 -0.456,0.868c-0.267,0.008 -0.495,-0.368 -0.509,-0.838c-0.015,-0.471 0.19,-0.86 0.456,-0.869Z" style="fill:none;stroke:#ccc;stroke-width:0.1px;"/><path d="M226.373,77.594c0,-0.025 -0.02,-0.045 -0.045,-0.045l-0.089,0c-0.025,0 -0.045,0.02 -0.045,0.045l0,0.885c0,0.025 0.02,0.045 0.045,0.045l0.089,0c0.025,0 0.045,-0.02 0.045,-0.045l0,-0.885Z" style="fill:#ccc;"/></g></svg>