<svg xmlns="http://www.w3.org/2000/svg" viewBox="0 0 430.38 75"><defs><style>.cls-1{fill:#26deff;}.cls-2{fill:#ff4c4c;}.cls-3{fill:#082c33;}</style></defs><title>logo</title><g id="Layer_2" data-name="Layer 2"><g id="Navigation"><polygon class="cls-1" points="24.29 69.72 10.65 59.95 27.52 59.95 32.74 44.14 37.96 59.95 54.83 59.95 41.19 69.72 42.7 74.3 65.33 74.3 32.87 0 32.46 0 0 74.3 22.78 74.3 24.29 69.72"/><polygon class="cls-2" points="120.91 0 108 0 49.11 0 55.53 0 87.99 74.3 88.44 74.3 100.7 46.25 85.91 46.25 83.88 41.2 83.88 40.55 103.19 40.55 107.11 31.58 80 31.58 77.71 25.88 109.6 25.88 113.52 16.91 74.11 16.91 71.81 11.21 116.01 11.21 120.91 0"/><polygon class="cls-3" points="49.11 0 32.66 0 65.12 74.3 88.25 74.3 55.79 0 49.11 0"/><path class="cls-3" d="M122.33,50.67h3.15v21h11.16v2.64H122.33Z"/><path class="cls-3" d="M139.08,50.67H153.4v2.64H142.24v7.22h9.19v2.64h-9.19v8.52H153.4v2.64H139.08Z"/><path class="cls-3" d="M164.46,53.31h-8.4V50.67h20v2.64h-8.4v21h-3.15Z"/><path class="cls-3" d="M197.07,50.67h2.05l10.17,23.66h-3.23l-2.84-6.62H192.81L190,74.33H186.9Zm5.09,14.47L198,55.4l-4.14,9.74Z"/><path class="cls-3" d="M212.68,50.67h3.08l9.15,19.64,9.15-19.64H237V74.33h-3V58.2c0-.59.08-1.93.08-2-.08.12-.59,1.42-.83,2l-7.37,16.13h-2.13L216.31,58.2c-.28-.59-.79-1.85-.83-2,0,0,.08,1.38.08,2V74.33h-2.88Z"/><path class="cls-3" d="M241.79,50.67H256.1v2.64H244.94v7.22h9.19v2.64h-9.19v8.52H256.1v2.64H241.79Z"/><path class="cls-3" d="M260.58,50.67h7.81c5.4,0,7.73,3.12,7.73,6.94a6.33,6.33,0,0,1-4.89,6.59l7.18,10.13h-3.67l-6.78-9.78h-4.22v9.78h-3.15Zm7.81,11.24c3.55,0,4.61-2.13,4.61-4.3s-1.06-4.3-4.61-4.3h-4.65v8.6Z"/><path class="cls-3" d="M282,50.67h3.15V74.33H282Z"/><path class="cls-3" d="M289.75,62.5c0-7.65,5.76-12.34,12.58-12.34a14.43,14.43,0,0,1,8.2,2.48v3.27a11.8,11.8,0,0,0-8.2-3.12c-5.44,0-9.3,3.79-9.3,9.7s3.86,9.7,9.3,9.7a11.8,11.8,0,0,0,8.2-3.12v3.27a14.43,14.43,0,0,1-8.2,2.48C295.51,74.84,289.75,70.15,289.75,62.5Z"/><path class="cls-3" d="M323.07,50.67h2.05l10.17,23.66h-3.23l-2.84-6.62H318.81L316,74.33h-3.08Zm5.09,14.47L324,55.4l-4.14,9.74Z"/><path class="cls-3" d="M345.1,50.67h3.23l8,18.85,8-18.85h3.08L357.33,74.33h-2.05Z"/><path class="cls-3" d="M367.95,62.5a12.56,12.56,0,0,1,25.12,0,12.56,12.56,0,0,1-25.12,0Zm21.84,0c0-5.76-3.86-9.86-9.27-9.86s-9.3,4.1-9.3,9.86,3.86,9.86,9.3,9.86S389.79,68.22,389.79,62.5Z"/><path class="cls-3" d="M401.49,53.31h-8.4V50.67h20v2.64h-8.4v21h-3.15Z"/><path class="cls-3" d="M416.07,50.67h14.31v2.64H419.22v7.22h9.19v2.64h-9.19v8.52h11.16v2.64H416.07Z"/></g></g></svg>